<svg xmlns="http://www.w3.org/2000/svg" xmlns:xlink="http://www.w3.org/1999/xlink" id="Layer_1" data-name="Layer 1" viewBox="0 0 731.98 144.56" width="731.98"  height="144.56" ><defs><style>.cls-1{fill:none;}.cls-2{fill:#1d75b8;}.cls-3{clip-path:url(#clip-path);}.cls-4{fill:#ffe500;}</style><clipPath id="clip-path" transform="translate(-594 -428.59)"><rect class="cls-1" x="-0.02" y="-0.48" width="1920" height="1080"/></clipPath></defs><polygon class="cls-2" points="283.18 0 281.11 0 280.4 1.95 241.18 109.42 201.95 1.95 201.24 0 199.17 0 185.72 0 181.48 0 182.94 3.98 233.51 142.61 234.23 144.56 236.3 144.56 246.05 144.56 248.12 144.56 248.84 142.61 299.41 3.98 300.87 0 296.63 0 283.18 0"/><polygon class="cls-2" points="322.37 0 319.4 0 319.4 2.97 319.4 141.59 319.4 144.56 322.37 144.56 334.97 144.56 337.94 144.56 337.94 141.59 337.94 2.97 337.94 0 334.97 0 322.37 0"/><g class="cls-3"><path class="cls-2" d="M1063.72,500.79a53.67,53.67,0,0,1-53.66,53.83H969V447.13h41a53.67,53.67,0,0,1,53.66,53.66m-53.66-72.2H950.47V573.15h59.59a72.23,72.23,0,0,0,72.2-72.36c0-19.77-7.1-36.92-21.11-51a69.78,69.78,0,0,0-51.09-21.21" transform="translate(-594 -428.59)"/><path class="cls-2" d="M1197.57,428.59h-2.88V517.2a37.94,37.94,0,1,1-75.88,0V428.59h-18V517.2a56,56,0,1,0,111.9,0V428.59h-15.13Z" transform="translate(-594 -428.59)"/><path class="cls-2" d="M1292.67,497.51c-6.06-2.43-11.51-4.57-24.47-9.4-7.36-2.75-10.4-4.74-14.13-8.57a17.68,17.68,0,0,1-5.32-12.89c0-5.42,2.43-10.06,7.41-14.2s12-6.34,20.76-6.34a43.84,43.84,0,0,1,18.37,4,40.42,40.42,0,0,1,13.52,9.4l1.58,1.77,2-1.27,10.8-6.83,2.78-1.76-2.18-2.46a62.46,62.46,0,0,0-19.44-14.4,61.59,61.59,0,0,0-27.44-5.93c-13.56,0-24.66,3.74-33,11.11s-12.69,16.47-12.69,26.79a34.12,34.12,0,0,0,9.32,24,53.34,53.34,0,0,0,23.11,14.25l0,0h0s11.42,4.05,25.25,8.88a35.89,35.89,0,0,1,14.13,8.56,17.7,17.7,0,0,1,5.32,12.9c0,5.41-2.42,10.06-7.4,14.19s-12.06,6.35-20.76,6.35a44,44,0,0,1-18.37-4,40.22,40.22,0,0,1-13.52-9.4l-1.59-1.77-2,1.27-10.8,6.83-2.78,1.75,2.17,2.47a62.62,62.62,0,0,0,19.45,14.4,61.59,61.59,0,0,0,27.44,5.92c13.56,0,24.65-3.73,33-11.1s12.7-16.47,12.7-26.8a34.12,34.12,0,0,0-9.33-24c-6-6.47-17.51-11.17-24-13.76" transform="translate(-594 -428.59)"/><path class="cls-4" d="M680.86,527.29c.55-3.08,7-33.18,50.64-6.35-9.14,49.11-56.48,38.55-50.64,6.35m105.82-13.71c-4.08,0-10.91-.19-15.72-.59a78.24,78.24,0,0,1-18.81-4.09,181.42,181.42,0,0,0,.17-54.16,38.55,38.55,0,0,0-4.55-14.05,24.08,24.08,0,0,0-14.89-11.09c-11.6-2.93-23.41.93-33.7,6.2-16.23,8.3-30.42,20.76-42.75,34.05a296.41,296.41,0,0,0-36.33,48.86,311.7,311.7,0,0,0-25.94,54c0,.16-.11.32-.16.48h20.52q1.22-3.14,2.49-6.25c.23-.54.79-1.89,1-2.28.46-1,.93-2.09,1.4-3.14q1.43-3.16,2.93-6.3,2.94-6.12,6.13-12.11,6.68-12.5,14.41-24.38,4-6.09,8.2-12Q653,504,655,501.4L656,500c.72-.93,1.45-1.85,2.18-2.77a198.75,198.75,0,0,1,18.16-20.3c12.38-11.71,21.81-18.38,27.43-21.69,9.31-5.48,31.83-11.86,32.45,16.26.26,11.68.21,18.26-1.38,29.54l-1.2-.62a111.68,111.68,0,0,0-17.39-7.74,43.05,43.05,0,0,0-30.6,1.37c-7.2,3.13-13.07,8.69-17.46,15.12a41,41,0,0,0-6.7,23.11c0,10.85,4,21.85,11.74,29.53s18.57,11.35,29.22,11.22a41.26,41.26,0,0,0,30.37-13.72c7.54-8.53,12-19.13,15-30,.12-.44.22-.88.34-1.31a111.65,111.65,0,0,0,13.77,2.85,206,206,0,0,0,31.78,2Z" transform="translate(-594 -428.59)"/></g></svg>