<svg width="1000" height="154" viewBox="0 0 1000 154" fill="none" xmlns="http://www.w3.org/2000/svg">
<path d="M188.068 8.9V74H227.314V62.375H201.367V8.9H188.068ZM252.136 74.93C257.282 74.93 261.684 73.938 265.342 71.954C269.062 69.908 272.038 66.87 274.27 62.84L263.761 59.585C262.521 61.631 260.94 63.181 259.018 64.235C257.158 65.227 254.895 65.723 252.229 65.723C249.873 65.723 247.858 65.196 246.184 64.142C244.51 63.088 243.239 61.569 242.371 59.585C241.565 57.601 241.162 55.183 241.162 52.331C241.224 49.355 241.658 46.875 242.464 44.891C243.332 42.845 244.541 41.326 246.091 40.334C247.703 39.28 249.687 38.753 252.043 38.753C253.965 38.753 255.639 39.187 257.065 40.055C258.491 40.923 259.576 42.101 260.32 43.589C261.126 45.077 261.529 46.875 261.529 48.983C261.529 49.417 261.405 49.975 261.157 50.657C260.971 51.277 260.754 51.773 260.506 52.145L263.761 47.867H235.954V55.307H274.27C274.332 54.935 274.363 54.439 274.363 53.819C274.425 53.199 274.456 52.61 274.456 52.052C274.456 47.464 273.588 43.558 271.852 40.334C270.116 37.048 267.574 34.568 264.226 32.894C260.94 31.158 256.941 30.29 252.229 30.29C247.517 30.29 243.425 31.22 239.953 33.08C236.481 34.878 233.784 37.451 231.862 40.799C230.002 44.085 229.072 48.022 229.072 52.61C229.072 57.136 230.002 61.073 231.862 64.421C233.784 67.707 236.481 70.28 239.953 72.14C243.425 74 247.486 74.93 252.136 74.93ZM276.194 31.22V41.357H302.606V31.22H276.194ZM283.541 16.34V74H295.166V16.34H283.541ZM311.064 8.9L305.856 31.871H314.319L323.898 8.9H311.064ZM327.418 59.213L321.559 66.746C323.171 68.296 324.969 69.753 326.953 71.117C328.999 72.419 331.262 73.473 333.742 74.279C336.284 75.085 339.074 75.488 342.112 75.488C347.01 75.488 350.854 74.31 353.644 71.954C356.434 69.536 357.829 66.188 357.829 61.91C357.829 59.306 357.24 57.198 356.062 55.586C354.884 53.974 353.303 52.641 351.319 51.587C349.397 50.471 347.289 49.479 344.995 48.611C343.135 47.805 341.461 47.123 339.973 46.565C338.547 46.007 337.431 45.387 336.625 44.705C335.881 43.961 335.509 43.124 335.509 42.194C335.509 41.14 335.881 40.365 336.625 39.869C337.431 39.311 338.516 39.032 339.88 39.032C341.926 39.032 344.003 39.559 346.111 40.613C348.281 41.667 350.141 43.031 351.691 44.705L356.992 37.265C355.628 35.901 354.047 34.723 352.249 33.731C350.451 32.677 348.498 31.84 346.39 31.22C344.282 30.6 342.019 30.29 339.601 30.29C336.749 30.29 334.145 30.755 331.789 31.685C329.495 32.553 327.666 33.886 326.302 35.684C324.938 37.42 324.256 39.559 324.256 42.101C324.256 44.767 324.845 46.968 326.023 48.704C327.263 50.378 328.813 51.742 330.673 52.796C332.533 53.788 334.455 54.656 336.439 55.4C338.547 56.082 340.283 56.733 341.647 57.353C343.011 57.973 344.034 58.686 344.716 59.492C345.46 60.236 345.832 61.166 345.832 62.282C345.832 63.522 345.398 64.514 344.53 65.258C343.662 65.94 342.422 66.281 340.81 66.281C339.57 66.281 338.237 66.033 336.811 65.537C335.447 65.041 333.99 64.297 332.44 63.305C330.89 62.251 329.216 60.887 327.418 59.213ZM391.426 8.9V74H405.004V8.9H391.426ZM413.56 74C420.38 74 426.332 72.667 431.416 70.001C436.562 67.335 440.561 63.584 443.413 58.748C446.265 53.85 447.691 48.084 447.691 41.45C447.691 34.816 446.265 29.081 443.413 24.245C440.561 19.347 436.562 15.565 431.416 12.899C426.332 10.233 420.38 8.9 413.56 8.9H399.982V20.99H413.095C415.947 20.99 418.644 21.393 421.186 22.199C423.728 22.943 425.96 24.152 427.882 25.826C429.804 27.5 431.292 29.639 432.346 32.243C433.462 34.785 434.02 37.854 434.02 41.45C434.02 45.046 433.462 48.146 432.346 50.75C431.292 53.292 429.804 55.4 427.882 57.074C425.96 58.748 423.728 59.988 421.186 60.794C418.644 61.538 415.947 61.91 413.095 61.91H399.982V74H413.56ZM475.202 74.93C480.348 74.93 484.75 73.938 488.408 71.954C492.128 69.908 495.104 66.87 497.336 62.84L486.827 59.585C485.587 61.631 484.006 63.181 482.084 64.235C480.224 65.227 477.961 65.723 475.295 65.723C472.939 65.723 470.924 65.196 469.25 64.142C467.576 63.088 466.305 61.569 465.437 59.585C464.631 57.601 464.228 55.183 464.228 52.331C464.29 49.355 464.724 46.875 465.53 44.891C466.398 42.845 467.607 41.326 469.157 40.334C470.769 39.28 472.753 38.753 475.109 38.753C477.031 38.753 478.705 39.187 480.131 40.055C481.557 40.923 482.642 42.101 483.386 43.589C484.192 45.077 484.595 46.875 484.595 48.983C484.595 49.417 484.471 49.975 484.223 50.657C484.037 51.277 483.82 51.773 483.572 52.145L486.827 47.867H459.02V55.307H497.336C497.398 54.935 497.429 54.439 497.429 53.819C497.491 53.199 497.522 52.61 497.522 52.052C497.522 47.464 496.654 43.558 494.918 40.334C493.182 37.048 490.64 34.568 487.292 32.894C484.006 31.158 480.007 30.29 475.295 30.29C470.583 30.29 466.491 31.22 463.019 33.08C459.547 34.878 456.85 37.451 454.928 40.799C453.068 44.085 452.138 48.022 452.138 52.61C452.138 57.136 453.068 61.073 454.928 64.421C456.85 67.707 459.547 70.28 463.019 72.14C466.491 74 470.552 74.93 475.202 74.93ZM506.886 59.213L501.027 66.746C502.639 68.296 504.437 69.753 506.421 71.117C508.467 72.419 510.73 73.473 513.21 74.279C515.752 75.085 518.542 75.488 521.58 75.488C526.478 75.488 530.322 74.31 533.112 71.954C535.902 69.536 537.297 66.188 537.297 61.91C537.297 59.306 536.708 57.198 535.53 55.586C534.352 53.974 532.771 52.641 530.787 51.587C528.865 50.471 526.757 49.479 524.463 48.611C522.603 47.805 520.929 47.123 519.441 46.565C518.015 46.007 516.899 45.387 516.093 44.705C515.349 43.961 514.977 43.124 514.977 42.194C514.977 41.14 515.349 40.365 516.093 39.869C516.899 39.311 517.984 39.032 519.348 39.032C521.394 39.032 523.471 39.559 525.579 40.613C527.749 41.667 529.609 43.031 531.159 44.705L536.46 37.265C535.096 35.901 533.515 34.723 531.717 33.731C529.919 32.677 527.966 31.84 525.858 31.22C523.75 30.6 521.487 30.29 519.069 30.29C516.217 30.29 513.613 30.755 511.257 31.685C508.963 32.553 507.134 33.886 505.77 35.684C504.406 37.42 503.724 39.559 503.724 42.101C503.724 44.767 504.313 46.968 505.491 48.704C506.731 50.378 508.281 51.742 510.141 52.796C512.001 53.788 513.923 54.656 515.907 55.4C518.015 56.082 519.751 56.733 521.115 57.353C522.479 57.973 523.502 58.686 524.184 59.492C524.928 60.236 525.3 61.166 525.3 62.282C525.3 63.522 524.866 64.514 523.998 65.258C523.13 65.94 521.89 66.281 520.278 66.281C519.038 66.281 517.705 66.033 516.279 65.537C514.915 65.041 513.458 64.297 511.908 63.305C510.358 62.251 508.684 60.887 506.886 59.213ZM543.198 14.666C543.198 16.588 543.911 18.2 545.337 19.502C546.763 20.804 548.468 21.455 550.452 21.455C552.436 21.455 554.11 20.804 555.474 19.502C556.9 18.2 557.613 16.588 557.613 14.666C557.613 12.682 556.9 11.07 555.474 9.82999C554.11 8.528 552.436 7.877 550.452 7.877C548.468 7.877 546.763 8.528 545.337 9.82999C543.911 11.07 543.198 12.682 543.198 14.666ZM544.5 31.22V74H556.218V31.22H544.5ZM565.098 76.976C565.346 80.696 566.338 83.982 568.074 86.834C569.872 89.748 572.445 91.98 575.793 93.53C579.141 95.142 583.295 95.948 588.255 95.948C592.347 95.948 596.129 95.142 599.601 93.53C603.073 91.98 605.832 89.5 607.878 86.09C609.986 82.68 611.04 78.34 611.04 73.07V31.22H599.415V73.07C599.415 75.984 598.857 78.402 597.741 80.324C596.687 82.246 595.261 83.672 593.463 84.602C591.727 85.532 589.867 85.997 587.883 85.997C585.713 85.997 583.822 85.625 582.21 84.881C580.598 84.137 579.327 83.083 578.397 81.719C577.467 80.417 576.971 78.836 576.909 76.976H565.098ZM564.261 52.238C564.261 56.95 565.222 60.949 567.144 64.235C569.066 67.459 571.608 69.908 574.77 71.582C577.932 73.256 581.28 74.093 584.814 74.093C588.41 74.093 591.572 73.256 594.3 71.582C597.09 69.846 599.26 67.335 600.81 64.049C602.422 60.763 603.228 56.826 603.228 52.238C603.228 47.588 602.422 43.651 600.81 40.427C599.26 37.141 597.09 34.63 594.3 32.894C591.572 31.158 588.41 30.29 584.814 30.29C581.28 30.29 577.932 31.127 574.77 32.801C571.608 34.475 569.066 36.955 567.144 40.241C565.222 43.465 564.261 47.464 564.261 52.238ZM576.723 52.238C576.723 49.634 577.25 47.464 578.304 45.728C579.358 43.93 580.784 42.566 582.582 41.636C584.38 40.706 586.302 40.241 588.348 40.241C589.712 40.241 591.045 40.52 592.347 41.078C593.649 41.574 594.827 42.318 595.881 43.31C596.997 44.302 597.865 45.542 598.485 47.03C599.105 48.518 599.415 50.254 599.415 52.238C599.415 54.842 598.857 57.043 597.741 58.841C596.687 60.577 595.292 61.91 593.556 62.84C591.882 63.708 590.146 64.142 588.348 64.142C586.302 64.142 584.38 63.677 582.582 62.747C580.784 61.817 579.358 60.484 578.304 58.748C577.25 56.95 576.723 54.78 576.723 52.238ZM648.487 47.96V74H660.949V46.658C660.949 41.512 659.709 37.513 657.229 34.661C654.749 31.747 650.967 30.29 645.883 30.29C642.845 30.29 640.241 30.941 638.071 32.243C635.963 33.483 634.258 35.312 632.956 37.73V31.22H620.866V74H632.956V47.96C632.956 46.162 633.297 44.612 633.979 43.31C634.661 42.008 635.653 41.016 636.955 40.334C638.257 39.59 639.745 39.218 641.419 39.218C643.899 39.218 645.697 39.962 646.813 41.45C647.929 42.938 648.487 45.108 648.487 47.96ZM706.649 20.525H735.758V8.9H706.649V20.525ZM706.649 46.193H734.828V35.126H706.649V46.193ZM698.093 8.9V74H710.927V8.9H698.093ZM739.279 52.61C739.279 57.012 740.302 60.918 742.348 64.328C744.456 67.676 747.277 70.28 750.811 72.14C754.407 74 758.468 74.93 762.994 74.93C767.52 74.93 771.55 74 775.084 72.14C778.68 70.28 781.501 67.676 783.547 64.328C785.655 60.918 786.709 57.012 786.709 52.61C786.709 48.146 785.655 44.24 783.547 40.892C781.501 37.544 778.68 34.94 775.084 33.08C771.55 31.22 767.52 30.29 762.994 30.29C758.468 30.29 754.407 31.22 750.811 33.08C747.277 34.94 744.456 37.544 742.348 40.892C740.302 44.24 739.279 48.146 739.279 52.61ZM751.555 52.61C751.555 50.192 752.051 48.053 753.043 46.193C754.097 44.333 755.492 42.907 757.228 41.915C758.964 40.923 760.886 40.427 762.994 40.427C765.102 40.427 767.024 40.923 768.76 41.915C770.496 42.907 771.86 44.333 772.852 46.193C773.906 48.053 774.433 50.192 774.433 52.61C774.433 55.028 773.906 57.167 772.852 59.027C771.86 60.825 770.496 62.251 768.76 63.305C767.024 64.297 765.102 64.793 762.994 64.793C760.886 64.793 758.964 64.297 757.228 63.305C755.492 62.251 754.097 60.825 753.043 59.027C752.051 57.167 751.555 55.028 751.555 52.61ZM805.697 31.22H793.886V74H805.697V31.22ZM818.252 43.775L823.739 33.545C822.871 32.429 821.724 31.592 820.298 31.034C818.934 30.476 817.477 30.197 815.927 30.197C813.695 30.197 811.525 31.003 809.417 32.615C807.309 34.165 805.604 36.273 804.302 38.939C803 41.543 802.349 44.55 802.349 47.96L805.697 51.308C805.697 49.262 805.945 47.526 806.441 46.1C806.999 44.612 807.805 43.465 808.859 42.659C809.913 41.853 811.184 41.45 812.672 41.45C813.912 41.45 814.935 41.667 815.741 42.101C816.609 42.473 817.446 43.031 818.252 43.775ZM891.578 8.9L877.535 35.126L863.585 8.9H848.426L870.839 47.123V74H884.324V47.03L906.737 8.9H891.578ZM898.767 52.61C898.767 57.012 899.79 60.918 901.836 64.328C903.944 67.676 906.765 70.28 910.299 72.14C913.895 74 917.956 74.93 922.482 74.93C927.008 74.93 931.038 74 934.572 72.14C938.168 70.28 940.989 67.676 943.035 64.328C945.143 60.918 946.197 57.012 946.197 52.61C946.197 48.146 945.143 44.24 943.035 40.892C940.989 37.544 938.168 34.94 934.572 33.08C931.038 31.22 927.008 30.29 922.482 30.29C917.956 30.29 913.895 31.22 910.299 33.08C906.765 34.94 903.944 37.544 901.836 40.892C899.79 44.24 898.767 48.146 898.767 52.61ZM911.043 52.61C911.043 50.192 911.539 48.053 912.531 46.193C913.585 44.333 914.98 42.907 916.716 41.915C918.452 40.923 920.374 40.427 922.482 40.427C924.59 40.427 926.512 40.923 928.248 41.915C929.984 42.907 931.348 44.333 932.34 46.193C933.394 48.053 933.921 50.192 933.921 52.61C933.921 55.028 933.394 57.167 932.34 59.027C931.348 60.825 929.984 62.251 928.248 63.305C926.512 64.297 924.59 64.793 922.482 64.793C920.374 64.793 918.452 64.297 916.716 63.305C914.98 62.251 913.585 60.825 912.531 59.027C911.539 57.167 911.043 55.028 911.043 52.61ZM965.836 57.26V31.22H953.374V58.562C953.374 63.646 954.614 67.645 957.094 70.559C959.636 73.473 963.449 74.93 968.533 74.93C971.571 74.93 974.144 74.31 976.252 73.07C978.36 71.768 980.096 69.908 981.46 67.49V74H993.457V31.22H981.46V57.26C981.46 59.058 981.088 60.608 980.344 61.91C979.662 63.212 978.67 64.235 977.368 64.979C976.128 65.661 974.64 66.002 972.904 66.002C970.424 66.002 968.626 65.258 967.51 63.77C966.394 62.22 965.836 60.05 965.836 57.26Z" fill="#091540"/>
<path d="M190.005 128.525C190.005 126.497 190.441 124.688 191.314 123.096C192.212 121.505 193.432 120.247 194.972 119.323C196.512 118.399 198.257 117.938 200.208 117.938C202.184 117.938 203.929 118.399 205.444 119.323C206.984 120.247 208.19 121.505 209.062 123.096C209.961 124.688 210.41 126.497 210.41 128.525C210.41 130.553 209.961 132.362 209.062 133.953C208.19 135.545 206.984 136.802 205.444 137.726C203.929 138.65 202.184 139.112 200.208 139.112C198.257 139.112 196.512 138.65 194.972 137.726C193.432 136.802 192.212 135.545 191.314 133.953C190.441 132.362 190.005 130.553 190.005 128.525ZM186.54 128.525C186.54 130.476 186.874 132.298 187.541 133.992C188.234 135.686 189.197 137.162 190.429 138.419C191.661 139.651 193.111 140.627 194.779 141.345C196.447 142.039 198.257 142.385 200.208 142.385C202.184 142.385 203.993 142.039 205.636 141.345C207.304 140.627 208.755 139.651 209.987 138.419C211.219 137.162 212.168 135.686 212.836 133.992C213.529 132.298 213.875 130.476 213.875 128.525C213.875 126.549 213.529 124.726 212.836 123.058C212.168 121.364 211.219 119.901 209.987 118.669C208.755 117.411 207.304 116.436 205.636 115.743C203.993 115.024 202.184 114.665 200.208 114.665C198.257 114.665 196.447 115.024 194.779 115.743C193.111 116.436 191.661 117.411 190.429 118.669C189.197 119.901 188.234 121.364 187.541 123.058C186.874 124.726 186.54 126.549 186.54 128.525ZM230.817 131.22V142H233.897V130.835C233.897 128.705 233.345 127.023 232.241 125.791C231.163 124.534 229.687 123.905 227.814 123.905C226.659 123.905 225.632 124.162 224.734 124.675C223.861 125.188 223.129 125.984 222.539 127.062V124.29H219.459V142H222.539V131.22C222.539 130.347 222.719 129.577 223.078 128.91C223.463 128.243 223.989 127.729 224.657 127.37C225.35 126.985 226.145 126.792 227.044 126.792C228.276 126.792 229.212 127.165 229.854 127.909C230.496 128.653 230.817 129.757 230.817 131.22ZM247.695 142.385C249.594 142.385 251.237 142.013 252.623 141.268C254.034 140.498 255.202 139.369 256.126 137.88L253.624 136.302C252.982 137.38 252.199 138.188 251.275 138.727C250.351 139.241 249.286 139.497 248.08 139.497C246.873 139.497 245.847 139.241 245 138.727C244.153 138.214 243.511 137.47 243.075 136.494C242.638 135.519 242.42 134.338 242.42 132.952C242.446 131.592 242.677 130.45 243.113 129.526C243.575 128.576 244.217 127.858 245.038 127.37C245.885 126.857 246.899 126.6 248.08 126.6C249.081 126.6 249.953 126.818 250.698 127.254C251.442 127.691 252.019 128.294 252.43 129.064C252.866 129.834 253.085 130.745 253.085 131.797C253.085 131.977 253.046 132.208 252.969 132.49C252.892 132.747 252.815 132.94 252.738 133.068L253.97 131.297H241.265V133.915H256.396C256.396 133.864 256.396 133.748 256.396 133.568C256.421 133.363 256.434 133.171 256.434 132.991C256.434 131.117 256.1 129.5 255.433 128.14C254.766 126.78 253.803 125.74 252.546 125.021C251.314 124.277 249.825 123.905 248.08 123.905C246.334 123.905 244.794 124.29 243.46 125.06C242.151 125.83 241.124 126.908 240.38 128.294C239.661 129.68 239.302 131.297 239.302 133.145C239.302 134.967 239.648 136.571 240.341 137.957C241.06 139.343 242.048 140.434 243.306 141.23C244.589 142 246.052 142.385 247.695 142.385ZM260.271 134.3H267.971V131.412H260.271V134.3ZM273.398 133.838L270.78 135.609C271.37 136.79 272.127 137.906 273.051 138.958C274.001 139.985 275.092 140.819 276.324 141.461C277.581 142.077 278.942 142.385 280.405 142.385C281.483 142.385 282.509 142.205 283.485 141.846C284.486 141.487 285.371 140.973 286.141 140.306C286.937 139.639 287.553 138.83 287.989 137.88C288.451 136.931 288.682 135.866 288.682 134.685C288.682 133.453 288.464 132.401 288.028 131.528C287.591 130.63 287.027 129.872 286.334 129.256C285.666 128.615 284.935 128.089 284.139 127.678C283.343 127.267 282.586 126.934 281.868 126.677C280.302 126.138 279.057 125.599 278.133 125.06C277.235 124.495 276.593 123.905 276.208 123.289C275.823 122.647 275.631 121.954 275.631 121.21C275.631 120.337 275.964 119.554 276.632 118.861C277.299 118.143 278.364 117.783 279.827 117.783C280.879 117.783 281.765 117.989 282.484 118.399C283.228 118.81 283.857 119.336 284.37 119.978C284.883 120.62 285.307 121.274 285.641 121.941L288.451 120.324C288.015 119.375 287.412 118.476 286.642 117.629C285.872 116.757 284.935 116.051 283.831 115.512C282.753 114.947 281.483 114.665 280.02 114.665C278.505 114.665 277.158 114.973 275.977 115.589C274.796 116.179 273.872 117.001 273.205 118.053C272.538 119.105 272.204 120.299 272.204 121.633C272.204 122.865 272.435 123.905 272.897 124.752C273.385 125.599 274.001 126.318 274.745 126.908C275.489 127.473 276.272 127.947 277.094 128.332C277.915 128.692 278.659 128.987 279.327 129.218C280.353 129.577 281.316 129.988 282.214 130.45C283.138 130.886 283.882 131.464 284.447 132.182C285.012 132.901 285.294 133.864 285.294 135.07C285.294 136.302 284.858 137.316 283.985 138.111C283.112 138.907 281.957 139.305 280.52 139.305C279.442 139.305 278.48 139.074 277.633 138.612C276.786 138.15 276.016 137.508 275.323 136.687C274.655 135.866 274.014 134.916 273.398 133.838ZM291.756 124.29V127.177H300.611V124.29H291.756ZM294.644 118.13V142H297.724V118.13H294.644ZM303.315 133.145C303.315 134.916 303.713 136.507 304.509 137.919C305.33 139.305 306.434 140.396 307.82 141.191C309.206 141.987 310.759 142.385 312.478 142.385C314.224 142.385 315.776 141.987 317.137 141.191C318.523 140.396 319.614 139.305 320.409 137.919C321.231 136.507 321.641 134.916 321.641 133.145C321.641 131.348 321.231 129.757 320.409 128.371C319.614 126.985 318.523 125.894 317.137 125.098C315.776 124.303 314.224 123.905 312.478 123.905C310.759 123.905 309.206 124.303 307.82 125.098C306.434 125.894 305.33 126.985 304.509 128.371C303.713 129.757 303.315 131.348 303.315 133.145ZM306.434 133.145C306.434 131.913 306.69 130.822 307.204 129.872C307.743 128.897 308.461 128.14 309.36 127.601C310.284 127.062 311.323 126.792 312.478 126.792C313.633 126.792 314.66 127.062 315.558 127.601C316.482 128.14 317.201 128.897 317.714 129.872C318.253 130.822 318.523 131.913 318.523 133.145C318.523 134.377 318.253 135.468 317.714 136.417C317.201 137.367 316.482 138.124 315.558 138.689C314.66 139.228 313.633 139.497 312.478 139.497C311.323 139.497 310.284 139.228 309.36 138.689C308.461 138.124 307.743 137.367 307.204 136.417C306.69 135.468 306.434 134.377 306.434 133.145ZM329.915 150.47V124.29H326.835V150.47H329.915ZM344.737 133.145C344.737 131.22 344.34 129.577 343.544 128.217C342.748 126.831 341.683 125.766 340.348 125.021C339.039 124.277 337.576 123.905 335.959 123.905C334.496 123.905 333.2 124.277 332.071 125.021C330.967 125.766 330.095 126.831 329.453 128.217C328.837 129.577 328.529 131.22 328.529 133.145C328.529 135.044 328.837 136.687 329.453 138.073C330.095 139.459 330.967 140.524 332.071 141.268C333.2 142.013 334.496 142.385 335.959 142.385C337.576 142.385 339.039 142.013 340.348 141.268C341.683 140.524 342.748 139.459 343.544 138.073C344.34 136.687 344.737 135.044 344.737 133.145ZM341.619 133.145C341.619 134.505 341.337 135.66 340.772 136.61C340.233 137.56 339.501 138.278 338.577 138.766C337.679 139.254 336.678 139.497 335.574 139.497C334.676 139.497 333.791 139.254 332.918 138.766C332.045 138.278 331.327 137.56 330.762 136.61C330.197 135.66 329.915 134.505 329.915 133.145C329.915 131.785 330.197 130.63 330.762 129.68C331.327 128.73 332.045 128.012 332.918 127.524C333.791 127.036 334.676 126.792 335.574 126.792C336.678 126.792 337.679 127.036 338.577 127.524C339.501 128.012 340.233 128.73 340.772 129.68C341.337 130.63 341.619 131.785 341.619 133.145ZM363.029 115.05V142H366.302V115.05H363.029ZM371.114 142C373.732 142 376.055 141.435 378.083 140.306C380.111 139.177 381.702 137.611 382.857 135.609C384.012 133.581 384.589 131.22 384.589 128.525C384.589 125.83 384.012 123.481 382.857 121.479C381.702 119.452 380.111 117.873 378.083 116.744C376.055 115.615 373.732 115.05 371.114 115.05H364.839V118.322H371.114C372.629 118.322 374.015 118.566 375.272 119.054C376.53 119.516 377.608 120.196 378.506 121.094C379.405 121.967 380.098 123.032 380.585 124.29C381.073 125.548 381.317 126.959 381.317 128.525C381.317 130.091 381.073 131.502 380.585 132.76C380.098 134.018 379.405 135.096 378.506 135.994C377.608 136.867 376.53 137.547 375.272 138.034C374.015 138.496 372.629 138.727 371.114 138.727H364.839V142H371.114ZM390.16 116.975C390.16 117.54 390.365 118.04 390.776 118.476C391.212 118.887 391.713 119.092 392.277 119.092C392.868 119.092 393.368 118.887 393.779 118.476C394.19 118.04 394.395 117.54 394.395 116.975C394.395 116.385 394.19 115.884 393.779 115.473C393.368 115.063 392.868 114.857 392.277 114.857C391.713 114.857 391.212 115.063 390.776 115.473C390.365 115.884 390.16 116.385 390.16 116.975ZM390.737 124.29V142H393.817V124.29H390.737ZM400.122 143.155C400.122 144.669 400.495 146.004 401.239 147.159C401.983 148.34 403.01 149.251 404.319 149.893C405.654 150.534 407.181 150.855 408.9 150.855C410.389 150.855 411.801 150.509 413.135 149.816C414.47 149.123 415.561 148.083 416.408 146.697C417.255 145.337 417.678 143.643 417.678 141.615V124.29H414.598V141.615C414.598 143.104 414.303 144.31 413.713 145.234C413.148 146.184 412.43 146.877 411.557 147.313C410.684 147.749 409.799 147.968 408.9 147.968C407.745 147.968 406.744 147.737 405.897 147.275C405.05 146.838 404.396 146.248 403.934 145.504C403.472 144.785 403.241 144.002 403.241 143.155H400.122ZM399.776 133.145C399.776 135.044 400.174 136.687 400.969 138.073C401.765 139.459 402.83 140.524 404.165 141.268C405.5 142.013 406.963 142.385 408.554 142.385C410.043 142.385 411.339 142.013 412.442 141.268C413.546 140.524 414.406 139.459 415.022 138.073C415.664 136.687 415.984 135.044 415.984 133.145C415.984 131.22 415.664 129.577 415.022 128.217C414.406 126.831 413.546 125.766 412.442 125.021C411.339 124.277 410.043 123.905 408.554 123.905C406.963 123.905 405.5 124.277 404.165 125.021C402.83 125.766 401.765 126.831 400.969 128.217C400.174 129.577 399.776 131.22 399.776 133.145ZM402.894 133.145C402.894 131.785 403.164 130.63 403.703 129.68C404.268 128.73 405.012 128.012 405.936 127.524C406.86 127.036 407.861 126.792 408.939 126.792C409.606 126.792 410.274 126.934 410.941 127.216C411.608 127.498 412.211 127.909 412.75 128.448C413.315 128.987 413.764 129.654 414.098 130.45C414.432 131.22 414.598 132.118 414.598 133.145C414.598 134.505 414.316 135.66 413.751 136.61C413.187 137.56 412.468 138.278 411.595 138.766C410.723 139.254 409.837 139.497 408.939 139.497C407.861 139.497 406.86 139.254 405.936 138.766C405.012 138.278 404.268 137.56 403.703 136.61C403.164 135.66 402.894 134.505 402.894 133.145ZM424.428 116.975C424.428 117.54 424.633 118.04 425.044 118.476C425.48 118.887 425.981 119.092 426.545 119.092C427.136 119.092 427.636 118.887 428.047 118.476C428.458 118.04 428.663 117.54 428.663 116.975C428.663 116.385 428.458 115.884 428.047 115.473C427.636 115.063 427.136 114.857 426.545 114.857C425.981 114.857 425.48 115.063 425.044 115.473C424.633 115.884 424.428 116.385 424.428 116.975ZM425.005 124.29V142H428.085V124.29H425.005ZM432.889 124.29V127.177H441.744V124.29H432.889ZM435.776 118.13V142H438.856V118.13H435.776ZM447.374 136.533C447.374 135.891 447.528 135.339 447.836 134.877C448.144 134.415 448.606 134.056 449.222 133.799C449.864 133.543 450.685 133.414 451.686 133.414C452.764 133.414 453.778 133.556 454.727 133.838C455.677 134.095 456.601 134.531 457.499 135.147V133.337C457.32 133.106 456.973 132.811 456.46 132.452C455.947 132.067 455.254 131.733 454.381 131.451C453.534 131.143 452.469 130.989 451.185 130.989C449.004 130.989 447.297 131.515 446.065 132.567C444.859 133.594 444.255 134.967 444.255 136.687C444.255 137.893 444.538 138.92 445.102 139.767C445.667 140.614 446.411 141.268 447.335 141.73C448.285 142.167 449.299 142.385 450.377 142.385C451.352 142.385 452.328 142.205 453.303 141.846C454.304 141.487 455.138 140.935 455.805 140.19C456.498 139.446 456.845 138.509 456.845 137.38L456.229 135.07C456.229 135.994 455.998 136.815 455.536 137.534C455.1 138.227 454.496 138.766 453.726 139.151C452.982 139.536 452.135 139.728 451.185 139.728C450.441 139.728 449.774 139.613 449.183 139.382C448.619 139.125 448.17 138.753 447.836 138.265C447.528 137.778 447.374 137.2 447.374 136.533ZM446.912 128.371C447.194 128.166 447.579 127.922 448.067 127.639C448.555 127.357 449.145 127.113 449.838 126.908C450.557 126.703 451.352 126.6 452.225 126.6C452.764 126.6 453.277 126.651 453.765 126.754C454.253 126.857 454.676 127.023 455.035 127.254C455.42 127.485 455.716 127.806 455.921 128.217C456.126 128.602 456.229 129.102 456.229 129.718V142H459.309V129.295C459.309 128.14 459.014 127.165 458.423 126.369C457.859 125.573 457.05 124.97 455.998 124.559C454.971 124.123 453.765 123.905 452.379 123.905C450.736 123.905 449.325 124.149 448.144 124.636C446.989 125.124 446.078 125.612 445.41 126.099L446.912 128.371ZM465.679 111.97V142H468.759V111.97H465.679ZM492.331 123.789L501.109 139.497L509.887 123.789L511.889 142H515.162L511.889 113.702L501.109 133.222L490.329 113.702L487.057 142H490.329L492.331 123.789ZM522.114 136.533C522.114 135.891 522.268 135.339 522.576 134.877C522.884 134.415 523.346 134.056 523.962 133.799C524.603 133.543 525.425 133.414 526.426 133.414C527.504 133.414 528.517 133.556 529.467 133.838C530.417 134.095 531.341 134.531 532.239 135.147V133.337C532.059 133.106 531.713 132.811 531.2 132.452C530.686 132.067 529.993 131.733 529.121 131.451C528.274 131.143 527.208 130.989 525.925 130.989C523.743 130.989 522.037 131.515 520.805 132.567C519.598 133.594 518.995 134.967 518.995 136.687C518.995 137.893 519.277 138.92 519.842 139.767C520.407 140.614 521.151 141.268 522.075 141.73C523.025 142.167 524.039 142.385 525.117 142.385C526.092 142.385 527.067 142.205 528.043 141.846C529.044 141.487 529.878 140.935 530.545 140.19C531.238 139.446 531.585 138.509 531.585 137.38L530.969 135.07C530.969 135.994 530.738 136.815 530.276 137.534C529.839 138.227 529.236 138.766 528.466 139.151C527.722 139.536 526.875 139.728 525.925 139.728C525.181 139.728 524.513 139.613 523.923 139.382C523.358 139.125 522.909 138.753 522.576 138.265C522.268 137.778 522.114 137.2 522.114 136.533ZM521.652 128.371C521.934 128.166 522.319 127.922 522.807 127.639C523.294 127.357 523.885 127.113 524.578 126.908C525.296 126.703 526.092 126.6 526.965 126.6C527.504 126.6 528.017 126.651 528.505 126.754C528.992 126.857 529.416 127.023 529.775 127.254C530.16 127.485 530.455 127.806 530.661 128.217C530.866 128.602 530.969 129.102 530.969 129.718V142H534.049V129.295C534.049 128.14 533.753 127.165 533.163 126.369C532.598 125.573 531.79 124.97 530.738 124.559C529.711 124.123 528.505 123.905 527.119 123.905C525.476 123.905 524.064 124.149 522.884 124.636C521.729 125.124 520.817 125.612 520.15 126.099L521.652 128.371ZM543.498 124.29H540.418V142H543.498V124.29ZM548.85 127.678L550.544 125.137C550.082 124.649 549.568 124.328 549.004 124.174C548.465 123.995 547.874 123.905 547.233 123.905C546.411 123.905 545.603 124.226 544.807 124.867C544.012 125.509 543.357 126.382 542.844 127.485C542.356 128.563 542.112 129.808 542.112 131.22H543.498C543.498 130.373 543.575 129.616 543.729 128.948C543.909 128.281 544.217 127.755 544.653 127.37C545.09 126.985 545.693 126.792 546.463 126.792C546.976 126.792 547.4 126.869 547.733 127.023C548.067 127.152 548.439 127.37 548.85 127.678ZM554.577 111.97V142H557.657V111.97H554.577ZM564.202 124.29L556.502 131.605L564.972 142H568.822L560.352 131.605L568.052 124.29H564.202ZM579.171 142.385C581.07 142.385 582.713 142.013 584.099 141.268C585.51 140.498 586.678 139.369 587.602 137.88L585.1 136.302C584.458 137.38 583.675 138.188 582.751 138.727C581.827 139.241 580.762 139.497 579.556 139.497C578.349 139.497 577.323 139.241 576.476 138.727C575.629 138.214 574.987 137.47 574.551 136.494C574.114 135.519 573.896 134.338 573.896 132.952C573.922 131.592 574.153 130.45 574.589 129.526C575.051 128.576 575.693 127.858 576.514 127.37C577.361 126.857 578.375 126.6 579.556 126.6C580.557 126.6 581.429 126.818 582.174 127.254C582.918 127.691 583.495 128.294 583.906 129.064C584.342 129.834 584.561 130.745 584.561 131.797C584.561 131.977 584.522 132.208 584.445 132.49C584.368 132.747 584.291 132.94 584.214 133.068L585.446 131.297H572.741V133.915H587.872C587.872 133.864 587.872 133.748 587.872 133.568C587.897 133.363 587.91 133.171 587.91 132.991C587.91 131.117 587.576 129.5 586.909 128.14C586.242 126.78 585.279 125.74 584.022 125.021C582.79 124.277 581.301 123.905 579.556 123.905C577.81 123.905 576.27 124.29 574.936 125.06C573.627 125.83 572.6 126.908 571.856 128.294C571.137 129.68 570.778 131.297 570.778 133.145C570.778 134.967 571.124 136.571 571.817 137.957C572.536 139.343 573.524 140.434 574.782 141.23C576.065 142 577.528 142.385 579.171 142.385ZM590.591 124.29V127.177H599.446V124.29H590.591ZM593.479 118.13V142H596.559V118.13H593.479ZM603.691 116.975C603.691 117.54 603.896 118.04 604.307 118.476C604.743 118.887 605.243 119.092 605.808 119.092C606.398 119.092 606.899 118.887 607.31 118.476C607.72 118.04 607.926 117.54 607.926 116.975C607.926 116.385 607.72 115.884 607.31 115.473C606.899 115.063 606.398 114.857 605.808 114.857C605.243 114.857 604.743 115.063 604.307 115.473C603.896 115.884 603.691 116.385 603.691 116.975ZM604.268 124.29V142H607.348V124.29H604.268ZM626.204 131.22V142H629.284V130.835C629.284 128.705 628.732 127.023 627.628 125.791C626.55 124.534 625.075 123.905 623.201 123.905C622.046 123.905 621.019 124.162 620.121 124.675C619.248 125.188 618.517 125.984 617.926 127.062V124.29H614.846V142H617.926V131.22C617.926 130.347 618.106 129.577 618.465 128.91C618.85 128.243 619.377 127.729 620.044 127.37C620.737 126.985 621.533 126.792 622.431 126.792C623.663 126.792 624.6 127.165 625.241 127.909C625.883 128.653 626.204 129.757 626.204 131.22ZM635.036 143.155C635.036 144.669 635.408 146.004 636.152 147.159C636.896 148.34 637.923 149.251 639.232 149.893C640.567 150.534 642.094 150.855 643.814 150.855C645.302 150.855 646.714 150.509 648.049 149.816C649.383 149.123 650.474 148.083 651.321 146.697C652.168 145.337 652.592 143.643 652.592 141.615V124.29H649.512V141.615C649.512 143.104 649.216 144.31 648.626 145.234C648.061 146.184 647.343 146.877 646.47 147.313C645.597 147.749 644.712 147.968 643.814 147.968C642.659 147.968 641.658 147.737 640.811 147.275C639.964 146.838 639.309 146.248 638.847 145.504C638.385 144.785 638.154 144.002 638.154 143.155H635.036ZM634.689 133.145C634.689 135.044 635.087 136.687 635.883 138.073C636.678 139.459 637.743 140.524 639.078 141.268C640.413 142.013 641.876 142.385 643.467 142.385C644.956 142.385 646.252 142.013 647.356 141.268C648.459 140.524 649.319 139.459 649.935 138.073C650.577 136.687 650.898 135.044 650.898 133.145C650.898 131.22 650.577 129.577 649.935 128.217C649.319 126.831 648.459 125.766 647.356 125.021C646.252 124.277 644.956 123.905 643.467 123.905C641.876 123.905 640.413 124.277 639.078 125.021C637.743 125.766 636.678 126.831 635.883 128.217C635.087 129.577 634.689 131.22 634.689 133.145ZM637.808 133.145C637.808 131.785 638.077 130.63 638.616 129.68C639.181 128.73 639.925 128.012 640.849 127.524C641.773 127.036 642.774 126.792 643.852 126.792C644.519 126.792 645.187 126.934 645.854 127.216C646.521 127.498 647.125 127.909 647.664 128.448C648.228 128.987 648.677 129.654 649.011 130.45C649.345 131.22 649.512 132.118 649.512 133.145C649.512 134.505 649.229 135.66 648.665 136.61C648.1 137.56 647.381 138.278 646.509 138.766C645.636 139.254 644.75 139.497 643.852 139.497C642.774 139.497 641.773 139.254 640.849 138.766C639.925 138.278 639.181 137.56 638.616 136.61C638.077 135.66 637.808 134.505 637.808 133.145ZM673.232 133.838L670.614 135.609C671.204 136.79 671.962 137.906 672.886 138.958C673.835 139.985 674.926 140.819 676.158 141.461C677.416 142.077 678.776 142.385 680.239 142.385C681.317 142.385 682.344 142.205 683.319 141.846C684.32 141.487 685.206 140.973 685.976 140.306C686.771 139.639 687.387 138.83 687.824 137.88C688.286 136.931 688.517 135.866 688.517 134.685C688.517 133.453 688.298 132.401 687.862 131.528C687.426 130.63 686.861 129.872 686.168 129.256C685.501 128.615 684.769 128.089 683.974 127.678C683.178 127.267 682.421 126.934 681.702 126.677C680.136 126.138 678.892 125.599 677.968 125.06C677.069 124.495 676.428 123.905 676.043 123.289C675.658 122.647 675.465 121.954 675.465 121.21C675.465 120.337 675.799 119.554 676.466 118.861C677.133 118.143 678.199 117.783 679.662 117.783C680.714 117.783 681.599 117.989 682.318 118.399C683.062 118.81 683.691 119.336 684.205 119.978C684.718 120.62 685.141 121.274 685.475 121.941L688.286 120.324C687.849 119.375 687.246 118.476 686.476 117.629C685.706 116.757 684.769 116.051 683.666 115.512C682.588 114.947 681.317 114.665 679.854 114.665C678.34 114.665 676.992 114.973 675.812 115.589C674.631 116.179 673.707 117.001 673.04 118.053C672.372 119.105 672.039 120.299 672.039 121.633C672.039 122.865 672.27 123.905 672.732 124.752C673.219 125.599 673.835 126.318 674.58 126.908C675.324 127.473 676.107 127.947 676.928 128.332C677.749 128.692 678.494 128.987 679.161 129.218C680.188 129.577 681.15 129.988 682.049 130.45C682.973 130.886 683.717 131.464 684.282 132.182C684.846 132.901 685.129 133.864 685.129 135.07C685.129 136.302 684.692 137.316 683.82 138.111C682.947 138.907 681.792 139.305 680.355 139.305C679.277 139.305 678.314 139.074 677.467 138.612C676.62 138.15 675.85 137.508 675.157 136.687C674.49 135.866 673.848 134.916 673.232 133.838ZM692.746 133.145C692.746 134.916 693.144 136.507 693.939 137.919C694.761 139.305 695.864 140.396 697.25 141.191C698.636 141.987 700.189 142.385 701.909 142.385C703.654 142.385 705.207 141.987 706.567 141.191C707.953 140.396 709.044 139.305 709.84 137.919C710.661 136.507 711.072 134.916 711.072 133.145C711.072 131.348 710.661 129.757 709.84 128.371C709.044 126.985 707.953 125.894 706.567 125.098C705.207 124.303 703.654 123.905 701.909 123.905C700.189 123.905 698.636 124.303 697.25 125.098C695.864 125.894 694.761 126.985 693.939 128.371C693.144 129.757 692.746 131.348 692.746 133.145ZM695.864 133.145C695.864 131.913 696.121 130.822 696.634 129.872C697.173 128.897 697.892 128.14 698.79 127.601C699.714 127.062 700.754 126.792 701.909 126.792C703.064 126.792 704.09 127.062 704.989 127.601C705.913 128.14 706.631 128.897 707.145 129.872C707.684 130.822 707.953 131.913 707.953 133.145C707.953 134.377 707.684 135.468 707.145 136.417C706.631 137.367 705.913 138.124 704.989 138.689C704.09 139.228 703.064 139.497 701.909 139.497C700.754 139.497 699.714 139.228 698.79 138.689C697.892 138.124 697.173 137.367 696.634 136.417C696.121 135.468 695.864 134.377 695.864 133.145ZM716.458 111.97V142H719.538V111.97H716.458ZM729.566 135.07V124.29H726.486V135.455C726.486 137.56 727.038 139.241 728.141 140.498C729.245 141.756 730.721 142.385 732.569 142.385C733.75 142.385 734.776 142.128 735.649 141.615C736.522 141.076 737.253 140.28 737.843 139.228V142H740.923V124.29H737.843V135.07C737.843 135.943 737.651 136.713 737.266 137.38C736.907 138.047 736.38 138.573 735.687 138.958C735.02 139.318 734.237 139.497 733.339 139.497C732.107 139.497 731.17 139.112 730.528 138.342C729.887 137.572 729.566 136.482 729.566 135.07ZM745.174 124.29V127.177H754.029V124.29H745.174ZM748.061 118.13V142H751.141V118.13H748.061ZM758.273 116.975C758.273 117.54 758.478 118.04 758.889 118.476C759.325 118.887 759.825 119.092 760.39 119.092C760.98 119.092 761.481 118.887 761.892 118.476C762.302 118.04 762.508 117.54 762.508 116.975C762.508 116.385 762.302 115.884 761.892 115.473C761.481 115.063 760.98 114.857 760.39 114.857C759.825 114.857 759.325 115.063 758.889 115.473C758.478 115.884 758.273 116.385 758.273 116.975ZM758.85 124.29V142H761.93V124.29H758.85ZM767.889 133.145C767.889 134.916 768.286 136.507 769.082 137.919C769.903 139.305 771.007 140.396 772.393 141.191C773.779 141.987 775.332 142.385 777.052 142.385C778.797 142.385 780.35 141.987 781.71 141.191C783.096 140.396 784.187 139.305 784.983 137.919C785.804 136.507 786.215 134.916 786.215 133.145C786.215 131.348 785.804 129.757 784.983 128.371C784.187 126.985 783.096 125.894 781.71 125.098C780.35 124.303 778.797 123.905 777.052 123.905C775.332 123.905 773.779 124.303 772.393 125.098C771.007 125.894 769.903 126.985 769.082 128.371C768.286 129.757 767.889 131.348 767.889 133.145ZM771.007 133.145C771.007 131.913 771.264 130.822 771.777 129.872C772.316 128.897 773.035 128.14 773.933 127.601C774.857 127.062 775.897 126.792 777.052 126.792C778.207 126.792 779.233 127.062 780.132 127.601C781.056 128.14 781.774 128.897 782.288 129.872C782.827 130.822 783.096 131.913 783.096 133.145C783.096 134.377 782.827 135.468 782.288 136.417C781.774 137.367 781.056 138.124 780.132 138.689C779.233 139.228 778.207 139.497 777.052 139.497C775.897 139.497 774.857 139.228 773.933 138.689C773.035 138.124 772.316 137.367 771.777 136.417C771.264 135.468 771.007 134.377 771.007 133.145ZM802.958 131.22V142H806.038V130.835C806.038 128.705 805.486 127.023 804.383 125.791C803.305 124.534 801.829 123.905 799.955 123.905C798.8 123.905 797.773 124.162 796.875 124.675C796.002 125.188 795.271 125.984 794.681 127.062V124.29H791.601V142H794.681V131.22C794.681 130.347 794.86 129.577 795.22 128.91C795.605 128.243 796.131 127.729 796.798 127.37C797.491 126.985 798.287 126.792 799.185 126.792C800.417 126.792 801.354 127.165 801.996 127.909C802.637 128.653 802.958 129.757 802.958 131.22ZM813.715 136.571L811.289 138.073C811.623 138.766 812.11 139.446 812.752 140.113C813.419 140.781 814.228 141.333 815.178 141.769C816.127 142.18 817.192 142.385 818.373 142.385C820.195 142.385 821.658 141.872 822.762 140.845C823.891 139.818 824.456 138.535 824.456 136.995C824.456 135.943 824.199 135.083 823.686 134.415C823.198 133.748 822.531 133.183 821.684 132.721C820.837 132.234 819.9 131.785 818.874 131.374C818.258 131.117 817.667 130.848 817.103 130.565C816.538 130.283 816.076 129.962 815.717 129.603C815.357 129.244 815.178 128.833 815.178 128.371C815.178 127.781 815.409 127.344 815.871 127.062C816.333 126.78 816.884 126.638 817.526 126.638C818.45 126.638 819.271 126.857 819.99 127.293C820.734 127.729 821.35 128.281 821.838 128.948L824.302 127.37C823.943 126.703 823.442 126.112 822.801 125.599C822.159 125.086 821.415 124.675 820.568 124.367C819.746 124.059 818.861 123.905 817.911 123.905C816.961 123.905 816.037 124.072 815.139 124.405C814.266 124.739 813.548 125.252 812.983 125.945C812.444 126.638 812.175 127.511 812.175 128.563C812.175 129.59 812.431 130.45 812.945 131.143C813.484 131.81 814.138 132.362 814.908 132.798C815.704 133.209 816.487 133.568 817.257 133.876C817.95 134.133 818.604 134.415 819.22 134.723C819.836 135.006 820.337 135.365 820.722 135.801C821.132 136.212 821.338 136.725 821.338 137.341C821.338 138.034 821.081 138.586 820.568 138.997C820.08 139.382 819.4 139.574 818.527 139.574C817.808 139.574 817.141 139.446 816.525 139.189C815.935 138.907 815.409 138.535 814.947 138.073C814.485 137.611 814.074 137.11 813.715 136.571Z" fill="#091540"/>
<circle cx="36.25" cy="125.092" r="17.8956" fill="#0051A2"/>
<circle cx="16.519" cy="91.5949" r="16.519" fill="#1C74BD"/>
<circle cx="22.7785" cy="55.8038" r="15.6013" fill="#408EE0"/>
<circle cx="46.557" cy="30.0253" r="14.6835" fill="#518CC4"/>
<circle cx="80.1361" cy="23.2247" r="14.2247" fill="#79B4EC"/>
<circle cx="111.339" cy="32.4019" r="13.307" fill="#89BFF8"/>
<circle cx="132.446" cy="53.5095" r="12.3892" fill="#ABD2FA"/>
<circle cx="142.082" cy="81.5" r="11.9304" fill="#BFDFFF"/>
<circle cx="139.788" cy="108.573" r="10.5538" fill="#007FFF"/>
<circle cx="126.94" cy="130.598" r="9.63608" fill="#F6511D"/>
<circle cx="108.585" cy="145.282" r="8.71835" fill="#FFB400"/>
</svg>
